<svg xmlns="http://www.w3.org/2000/svg" xmlns:xlink="http://www.w3.org/1999/xlink" width="500" zoomAndPan="magnify" viewBox="0 0 375 374.999991" height="500" preserveAspectRatio="xMidYMid meet" version="1.0"><defs><g/><clipPath id="317b5b60e9"><path d="M 130.898438 110.105469 L 244.148438 110.105469 L 244.148438 191.855469 L 130.898438 191.855469 Z M 130.898438 110.105469 " clip-rule="nonzero"/></clipPath></defs><rect x="-37.5" width="450" fill="#ffffff" y="-37.499999" height="449.999989" fill-opacity="1"/><rect x="-37.5" width="450" fill="#ffffff" y="-37.499999" height="449.999989" fill-opacity="1"/><g clip-path="url(#317b5b60e9)"><path fill="#5af0ff" d="M 159.199219 191.933594 C 151.394531 191.933594 144.726562 189.234375 139.199219 183.832031 C 133.667969 178.429688 130.898438 171.828125 130.898438 164.027344 C 130.898438 157.339844 132.914062 151.378906 136.945312 146.148438 C 140.65625 141.335938 145.421875 138.117188 151.238281 136.5 C 152.175781 136.242188 152.925781 135.535156 153.226562 134.613281 C 155.285156 128.328125 158.796875 123 163.765625 118.628906 C 168.347656 114.597656 173.539062 111.914062 179.347656 110.574219 C 180.917969 110.214844 182.351562 111.457031 182.351562 113.070312 L 182.351562 145.3125 C 182.351562 147.648438 179.546875 148.835938 177.871094 147.210938 L 175.984375 145.386719 C 174.949219 144.382812 173.300781 144.398438 172.28125 145.417969 L 168.785156 148.910156 C 167.753906 149.941406 167.753906 151.617188 168.785156 152.648438 L 185.628906 169.488281 C 186.660156 170.519531 188.332031 170.519531 189.363281 169.488281 L 206.207031 152.648438 C 207.238281 151.617188 207.238281 149.941406 206.207031 148.910156 L 202.710938 145.417969 C 201.691406 144.398438 200.042969 144.382812 199.003906 145.386719 L 197.121094 147.210938 C 195.445312 148.835938 192.640625 147.648438 192.640625 145.3125 L 192.640625 113.039062 C 192.640625 111.4375 194.054688 110.195312 195.621094 110.535156 C 203.140625 112.160156 209.5 115.949219 214.703125 121.90625 C 220.0625 128.050781 222.976562 135.175781 223.445312 143.28125 C 223.519531 144.621094 224.519531 145.734375 225.835938 146.011719 C 230.726562 147.039062 234.859375 149.460938 238.242188 153.285156 C 242.140625 157.703125 244.089844 162.867188 244.089844 168.785156 C 244.089844 175.214844 241.839844 180.679688 237.339844 185.183594 C 232.835938 189.683594 227.371094 191.933594 220.9375 191.933594 Z M 159.199219 191.933594 " fill-opacity="1" fill-rule="nonzero"/></g><g fill="#000000" fill-opacity="1"><g transform="translate(100.535323, 237.56978)"><g><path d="M 14.875 0.484375 C 12.550781 0.484375 10.476562 0.195312 8.65625 -0.375 C 6.84375 -0.945312 5.332031 -1.703125 4.125 -2.640625 C 2.914062 -3.578125 1.992188 -4.601562 1.359375 -5.71875 L 5 -10.171875 L 5.578125 -10.171875 C 6.585938 -8.671875 7.867188 -7.472656 9.421875 -6.578125 C 10.972656 -5.691406 12.789062 -5.25 14.875 -5.25 C 16.644531 -5.25 17.976562 -5.625 18.875 -6.375 C 19.78125 -7.125 20.234375 -8.160156 20.234375 -9.484375 C 20.234375 -10.273438 20.085938 -10.9375 19.796875 -11.46875 C 19.515625 -12.007812 19.035156 -12.46875 18.359375 -12.84375 C 17.679688 -13.226562 16.769531 -13.5625 15.625 -13.84375 L 11.3125 -14.828125 C 8.300781 -15.515625 6.054688 -16.65625 4.578125 -18.25 C 3.097656 -19.851562 2.359375 -21.929688 2.359375 -24.484375 C 2.359375 -26.378906 2.832031 -28.046875 3.78125 -29.484375 C 4.726562 -30.921875 6.109375 -32.035156 7.921875 -32.828125 C 9.742188 -33.628906 11.914062 -34.03125 14.4375 -34.03125 C 17.019531 -34.03125 19.234375 -33.6875 21.078125 -33 C 22.921875 -32.320312 24.476562 -31.28125 25.75 -29.875 L 22.46875 -25.375 L 21.890625 -25.375 C 20.941406 -26.375 19.851562 -27.117188 18.625 -27.609375 C 17.40625 -28.109375 16.007812 -28.359375 14.4375 -28.359375 C 12.613281 -28.359375 11.226562 -28.035156 10.28125 -27.390625 C 9.332031 -26.753906 8.859375 -25.867188 8.859375 -24.734375 C 8.859375 -23.679688 9.191406 -22.84375 9.859375 -22.21875 C 10.523438 -21.59375 11.675781 -21.101562 13.3125 -20.75 L 17.71875 -19.828125 C 20.976562 -19.140625 23.34375 -17.972656 24.8125 -16.328125 C 26.28125 -14.679688 27.015625 -12.535156 27.015625 -9.890625 C 27.015625 -7.796875 26.5625 -5.972656 25.65625 -4.421875 C 24.75 -2.867188 23.382812 -1.660156 21.5625 -0.796875 C 19.75 0.0546875 17.519531 0.484375 14.875 0.484375 Z M 14.875 0.484375 "/></g></g></g><g fill="#000000" fill-opacity="1"><g transform="translate(129.354749, 237.56978)"><g><path d="M 14.703125 0.484375 C 12.234375 0.484375 10.0625 -0.0234375 8.1875 -1.046875 C 6.3125 -2.066406 4.851562 -3.554688 3.8125 -5.515625 C 2.78125 -7.484375 2.265625 -9.859375 2.265625 -12.640625 C 2.265625 -15.429688 2.78125 -17.8125 3.8125 -19.78125 C 4.851562 -21.757812 6.3125 -23.253906 8.1875 -24.265625 C 10.0625 -25.285156 12.234375 -25.796875 14.703125 -25.796875 C 17.179688 -25.796875 19.359375 -25.285156 21.234375 -24.265625 C 23.109375 -23.253906 24.566406 -21.757812 25.609375 -19.78125 C 26.648438 -17.8125 27.171875 -15.429688 27.171875 -12.640625 C 27.171875 -9.859375 26.648438 -7.484375 25.609375 -5.515625 C 24.566406 -3.554688 23.109375 -2.066406 21.234375 -1.046875 C 19.359375 -0.0234375 17.179688 0.484375 14.703125 0.484375 Z M 14.703125 -4.90625 C 18.640625 -4.90625 20.609375 -7.484375 20.609375 -12.640625 C 20.609375 -15.316406 20.101562 -17.28125 19.09375 -18.53125 C 18.082031 -19.78125 16.617188 -20.40625 14.703125 -20.40625 C 10.773438 -20.40625 8.8125 -17.816406 8.8125 -12.640625 C 8.8125 -7.484375 10.773438 -4.90625 14.703125 -4.90625 Z M 14.703125 -4.90625 "/></g></g></g><g fill="#000000" fill-opacity="1"><g transform="translate(158.770755, 237.56978)"><g><path d="M 4.421875 0 L 4.421875 -20.28125 L 0.84375 -20.28125 L 0.84375 -25.34375 L 4.421875 -25.34375 C 4.171875 -26.40625 4.046875 -27.40625 4.046875 -28.34375 C 4.046875 -29.945312 4.410156 -31.316406 5.140625 -32.453125 C 5.878906 -33.597656 6.9375 -34.46875 8.3125 -35.0625 C 9.6875 -35.664062 11.320312 -35.96875 13.21875 -35.96875 C 16.019531 -35.96875 18.109375 -35.484375 19.484375 -34.515625 L 18 -29.828125 L 17.515625 -29.75 C 16.566406 -30.414062 15.347656 -30.75 13.859375 -30.75 C 12.710938 -30.75 11.851562 -30.46875 11.28125 -29.90625 C 10.707031 -29.351562 10.421875 -28.59375 10.421875 -27.625 C 10.421875 -27.21875 10.445312 -26.84375 10.5 -26.5 C 10.550781 -26.15625 10.644531 -25.769531 10.78125 -25.34375 L 18.015625 -25.34375 L 18.015625 -20.28125 L 10.78125 -20.28125 L 10.78125 0 Z M 4.421875 0 "/></g></g></g><g fill="#000000" fill-opacity="1"><g transform="translate(177.035295, 237.56978)"><g><path d="M 17.46875 -6.03125 L 19.109375 -1.328125 C 18.421875 -0.765625 17.554688 -0.320312 16.515625 0 C 15.484375 0.320312 14.304688 0.484375 12.984375 0.484375 C 10.242188 0.484375 8.160156 -0.257812 6.734375 -1.75 C 5.316406 -3.25 4.609375 -5.421875 4.609375 -8.265625 L 4.609375 -20.28125 L 0.75 -20.28125 L 0.75 -25.34375 L 4.609375 -25.34375 L 4.609375 -30.265625 L 10.96875 -31.296875 L 10.96875 -25.34375 L 18.15625 -25.34375 L 18.15625 -20.28125 L 10.96875 -20.28125 L 10.96875 -8.71875 C 10.96875 -7.46875 11.226562 -6.554688 11.75 -5.984375 C 12.269531 -5.410156 13.023438 -5.125 14.015625 -5.125 C 15.148438 -5.125 16.140625 -5.425781 16.984375 -6.03125 Z M 17.46875 -6.03125 "/></g></g></g><g fill="#000000" fill-opacity="1"><g transform="translate(196.699505, 237.56978)"><g><path d="M 26.03125 -20.9375 L 26.03125 -33.546875 L 32.640625 -33.546875 L 32.640625 0 L 26.03125 0 L 26.03125 -15.28125 L 11 -15.28125 L 11 0 L 4.359375 0 L 4.359375 -33.546875 L 11 -33.546875 L 11 -20.9375 Z M 26.03125 -20.9375 "/></g></g></g><g fill="#000000" fill-opacity="1"><g transform="translate(233.71044, 237.56978)"><g><path d="M 11.59375 0.484375 C 8.75 0.484375 6.648438 -0.289062 5.296875 -1.84375 C 3.941406 -3.394531 3.265625 -5.625 3.265625 -8.53125 L 3.265625 -25.3125 L 9.609375 -25.3125 L 9.609375 -9.34375 C 9.609375 -7.789062 9.941406 -6.660156 10.609375 -5.953125 C 11.273438 -5.242188 12.304688 -4.890625 13.703125 -4.890625 C 15.460938 -4.890625 16.832031 -5.46875 17.8125 -6.625 C 18.789062 -7.78125 19.28125 -9.597656 19.28125 -12.078125 L 19.28125 -25.3125 L 25.640625 -25.3125 L 25.640625 0 L 19.53125 0 L 19.53125 -3.71875 L 19.046875 -3.828125 C 18.234375 -2.378906 17.242188 -1.296875 16.078125 -0.578125 C 14.910156 0.128906 13.414062 0.484375 11.59375 0.484375 Z M 11.59375 0.484375 "/></g></g></g><g fill="#000000" fill-opacity="1"><g transform="translate(262.988773, 237.56978)"><g><path d="M 17.6875 0.484375 C 14.46875 0.484375 12.066406 -0.722656 10.484375 -3.140625 L 10 -3.046875 L 10 0 L 3.65625 0 L 3.65625 -35.484375 L 10 -35.484375 L 10 -22.328125 L 10.484375 -22.234375 C 11.359375 -23.441406 12.390625 -24.335938 13.578125 -24.921875 C 14.765625 -25.503906 16.179688 -25.796875 17.828125 -25.796875 C 19.878906 -25.796875 21.671875 -25.3125 23.203125 -24.34375 C 24.734375 -23.382812 25.925781 -21.921875 26.78125 -19.953125 C 27.632812 -17.984375 28.0625 -15.546875 28.0625 -12.640625 C 28.0625 -9.765625 27.617188 -7.34375 26.734375 -5.375 C 25.847656 -3.414062 24.625 -1.945312 23.0625 -0.96875 C 21.5 0 19.707031 0.484375 17.6875 0.484375 Z M 15.765625 -4.90625 C 17.628906 -4.90625 19.050781 -5.53125 20.03125 -6.78125 C 21.007812 -8.03125 21.5 -9.984375 21.5 -12.640625 C 21.5 -15.316406 21.007812 -17.28125 20.03125 -18.53125 C 19.050781 -19.78125 17.628906 -20.40625 15.765625 -20.40625 C 13.972656 -20.40625 12.550781 -19.757812 11.5 -18.46875 C 10.457031 -17.1875 9.9375 -15.242188 9.9375 -12.640625 C 9.9375 -10.046875 10.457031 -8.109375 11.5 -6.828125 C 12.550781 -5.546875 13.972656 -4.90625 15.765625 -4.90625 Z M 15.765625 -4.90625 "/></g></g></g></svg>