<svg xmlns="http://www.w3.org/2000/svg" xmlns:xlink="http://www.w3.org/1999/xlink" width="500" zoomAndPan="magnify" viewBox="0 0 375 374.999991" height="500" preserveAspectRatio="xMidYMid meet" version="1.0"><defs><g/><clipPath id="8c0bb8277b"><path d="M 5.28125 1 L 369.78125 1 L 369.78125 264 L 5.28125 264 Z M 5.28125 1 " clip-rule="nonzero"/></clipPath></defs><rect x="-37.5" width="450" fill="#ffffff" y="-37.499999" height="449.999989" fill-opacity="1"/><rect x="-37.5" width="450" fill="#ffffff" y="-37.499999" height="449.999989" fill-opacity="1"/><g clip-path="url(#8c0bb8277b)"><path fill="#5af0ff" d="M 96.390625 263.449219 C 71.265625 263.449219 49.804688 254.753906 32 237.367188 C 14.1875 219.976562 5.28125 198.722656 5.28125 173.601562 C 5.28125 152.070312 11.769531 132.886719 24.746094 116.046875 C 36.691406 100.546875 52.035156 90.191406 70.769531 84.984375 C 73.773438 84.148438 76.191406 81.875 77.164062 78.90625 C 83.789062 58.667969 95.101562 41.511719 111.097656 27.441406 C 125.847656 14.460938 142.570312 5.816406 161.257812 1.515625 C 166.316406 0.351562 170.933594 4.355469 170.933594 9.542969 L 170.933594 113.351562 C 170.933594 120.867188 161.902344 124.691406 156.503906 119.464844 L 150.441406 113.59375 C 147.105469 110.359375 141.792969 110.402344 138.507812 113.6875 L 127.253906 124.9375 C 123.933594 128.261719 123.933594 133.648438 127.253906 136.972656 L 181.480469 191.1875 C 184.804688 194.511719 190.191406 194.511719 193.511719 191.1875 L 247.738281 136.972656 C 251.0625 133.648438 251.0625 128.261719 247.738281 124.9375 L 236.488281 113.6875 C 233.199219 110.402344 227.890625 110.359375 224.550781 113.59375 L 218.488281 119.464844 C 213.09375 124.691406 204.0625 120.867188 204.0625 113.351562 L 204.0625 9.445312 C 204.0625 4.289062 208.621094 0.292969 213.65625 1.378906 C 237.867188 6.609375 258.34375 18.8125 275.09375 37.992188 C 292.347656 57.773438 301.730469 80.714844 303.234375 106.816406 C 303.484375 111.128906 306.703125 114.714844 310.933594 115.601562 C 326.679688 118.90625 339.992188 126.714844 350.878906 139.019531 C 363.433594 153.242188 369.710938 169.875 369.710938 188.921875 C 369.710938 209.625 362.46875 227.222656 347.976562 241.722656 C 333.480469 256.207031 315.875 263.449219 295.167969 263.449219 Z M 96.390625 263.449219 " fill-opacity="1" fill-rule="nonzero"/></g><g fill="#000000" fill-opacity="1"><g transform="translate(33.668754, 337.909263)"><g><path d="M 20.433594 0 C 24.628906 0 28.5 -1.757812 31.332031 -4.730469 C 34.164062 -7.636719 35.8125 -11.613281 35.8125 -15.738281 C 35.8125 -19.859375 34.199219 -23.480469 31.332031 -26.0625 C 28.5 -28.640625 24.628906 -30.113281 20.433594 -30.113281 L 15.019531 -30.113281 C 13.980469 -30.113281 13.335938 -31.078125 13.335938 -32.261719 C 13.335938 -33.410156 14.160156 -34.234375 15.414062 -34.234375 L 26.417969 -34.234375 C 31.117188 -34.234375 33.875 -36.527344 33.875 -40.832031 C 33.875 -44.738281 31.117188 -46.996094 26.417969 -46.996094 L 16.273438 -46.996094 C 12.117188 -46.996094 8.246094 -45.3125 5.339844 -42.40625 C 2.472656 -39.539062 0.753906 -35.632812 0.753906 -31.582031 C 0.753906 -27.675781 2.292969 -24.234375 4.910156 -21.652344 C 7.527344 -19.105469 11.148438 -17.566406 15.054688 -17.457031 L 20.683594 -17.457031 C 20.683594 -17.457031 20.828125 -17.421875 21.078125 -17.386719 C 21.257812 -17.351562 21.507812 -17.277344 21.902344 -17.097656 C 22.691406 -16.703125 23.085938 -16.023438 23.085938 -14.984375 C 23.085938 -14.265625 22.800781 -13.65625 22.191406 -13.191406 C 21.722656 -12.796875 21.078125 -12.617188 20.613281 -12.617188 L 8.820312 -12.617188 C 4.085938 -12.617188 1.46875 -10.648438 1.46875 -6.738281 C 1.46875 -4.769531 2.152344 -3.082031 3.40625 -1.898438 C 4.695312 -0.71875 6.558594 0 8.820312 0 Z M 20.433594 0 "/></g></g></g><g fill="#000000" fill-opacity="1"><g transform="translate(71.163878, 337.909263)"><g><path d="M 22.800781 0.359375 C 27.566406 0.359375 32.191406 -1.433594 35.488281 -4.730469 C 38.929688 -8.136719 40.972656 -12.90625 40.972656 -18.75 L 40.972656 -28.285156 L 28.140625 -28.285156 L 28.140625 -18.640625 C 28.140625 -16.167969 27.53125 -14.480469 26.277344 -13.515625 C 25.453125 -12.832031 24.269531 -12.511719 22.800781 -12.511719 C 21.292969 -12.511719 20.109375 -12.832031 19.285156 -13.515625 C 18.03125 -14.480469 17.386719 -16.203125 17.386719 -18.640625 L 17.386719 -28.390625 C 17.386719 -30.863281 18.03125 -32.585938 19.285156 -33.589844 C 20.109375 -34.234375 21.292969 -34.558594 22.800781 -34.558594 C 24.269531 -34.558594 25.453125 -34.234375 26.277344 -33.589844 C 27.53125 -32.585938 28.140625 -30.863281 28.140625 -28.390625 L 40.972656 -28.285156 C 40.972656 -34.125 38.929688 -38.929688 35.488281 -42.371094 C 32.191406 -45.632812 27.566406 -47.425781 22.800781 -47.425781 C 17.960938 -47.425781 13.40625 -45.632812 10.074219 -42.371094 C 6.597656 -38.964844 4.550781 -34.125 4.550781 -28.285156 L 4.550781 -18.75 C 4.550781 -12.90625 6.597656 -8.136719 10.074219 -4.730469 C 13.40625 -1.433594 17.960938 0.359375 22.800781 0.359375 Z M 22.800781 0.359375 "/></g></g></g><g fill="#000000" fill-opacity="1"><g transform="translate(116.724408, 337.909263)"><g><path d="M 11.113281 0.539062 C 12.832031 0.539062 14.480469 -0.144531 15.628906 -1.289062 C 16.777344 -2.4375 17.492188 -4.015625 17.492188 -5.734375 L 17.492188 -16.132812 L 26.417969 -16.132812 C 28.140625 -16.132812 29.71875 -16.777344 30.902344 -17.886719 C 32.082031 -19 32.765625 -20.503906 32.765625 -22.226562 C 32.765625 -23.945312 32.082031 -25.523438 30.902344 -26.707031 C 29.753906 -27.851562 28.140625 -28.535156 26.417969 -28.535156 L 17.492188 -28.535156 L 17.492188 -34.234375 L 30.003906 -34.234375 C 31.726562 -34.234375 33.339844 -34.953125 34.484375 -36.132812 C 35.632812 -37.28125 36.277344 -38.894531 36.277344 -40.613281 C 36.277344 -42.300781 35.632812 -43.949219 34.484375 -45.132812 C 33.300781 -46.316406 31.726562 -46.996094 30.003906 -46.996094 L 11.113281 -46.996094 C 8.996094 -46.996094 7.382812 -46.316406 6.238281 -44.953125 C 5.269531 -43.839844 4.804688 -42.300781 4.769531 -40.867188 L 4.769531 -5.734375 C 4.769531 -4.015625 5.449219 -2.4375 6.597656 -1.289062 C 7.742188 -0.144531 9.390625 0.539062 11.113281 0.539062 Z M 11.113281 0.539062 "/></g></g></g><g fill="#000000" fill-opacity="1"><g transform="translate(153.072454, 337.909263)"><g><path d="M 19.714844 0.574219 C 21.402344 0.574219 23.050781 -0.0703125 24.234375 -1.21875 C 25.414062 -2.367188 26.132812 -3.941406 26.132812 -5.664062 L 26.132812 -34.34375 L 32.65625 -34.34375 C 34.378906 -34.34375 35.992188 -35.023438 37.136719 -36.171875 C 38.320312 -37.316406 39.003906 -38.859375 39.003906 -40.578125 C 39.003906 -42.300781 38.320312 -43.949219 37.136719 -45.132812 C 35.992188 -46.277344 34.34375 -46.996094 32.65625 -46.996094 L 6.632812 -46.996094 C 4.910156 -46.996094 3.332031 -46.316406 2.152344 -45.132812 C 1.003906 -43.984375 0.324219 -42.40625 0.324219 -40.6875 C 0.324219 -38.964844 1.003906 -37.316406 2.152344 -36.171875 C 3.296875 -35.023438 4.910156 -34.34375 6.632812 -34.34375 L 13.65625 -34.34375 L 13.65625 -5.664062 C 13.65625 -3.941406 14.304688 -2.367188 15.414062 -1.21875 C 16.527344 -0.0703125 18.03125 0.574219 19.714844 0.574219 Z M 19.714844 0.574219 "/></g></g></g><g fill="#000000" fill-opacity="1"><g transform="translate(192.8259, 337.909263)"><g><path d="M 11.21875 0.539062 C 12.941406 0.539062 14.589844 -0.144531 15.738281 -1.289062 C 16.882812 -2.4375 17.566406 -4.015625 17.566406 -5.734375 L 17.566406 -16.203125 L 29.324219 -16.203125 L 29.324219 -5.734375 C 29.324219 -4.015625 30.039062 -2.4375 31.1875 -1.289062 C 32.335938 -0.144531 33.984375 0.539062 35.703125 0.539062 C 37.425781 0.539062 39.074219 -0.144531 40.222656 -1.289062 C 41.367188 -2.4375 42.050781 -4.015625 42.050781 -5.734375 L 42.050781 -41.296875 C 42.050781 -43.015625 41.402344 -44.628906 40.257812 -45.777344 C 39.109375 -46.925781 37.496094 -47.570312 35.777344 -47.570312 C 34.054688 -47.570312 32.40625 -46.886719 31.257812 -45.777344 C 30.074219 -44.59375 29.324219 -43.015625 29.324219 -41.296875 L 29.324219 -28.964844 L 17.566406 -28.964844 L 17.566406 -41.296875 C 17.566406 -43.015625 16.882812 -44.628906 15.738281 -45.777344 C 14.589844 -46.925781 12.941406 -47.570312 11.21875 -47.570312 C 9.5 -47.570312 7.851562 -46.925781 6.703125 -45.777344 C 5.519531 -44.59375 4.839844 -43.015625 4.839844 -41.296875 L 4.839844 -5.734375 C 4.839844 -4.015625 5.554688 -2.4375 6.703125 -1.289062 C 7.851562 -0.144531 9.5 0.539062 11.21875 0.539062 Z M 11.21875 0.539062 "/></g></g></g><g fill="#000000" fill-opacity="1"><g transform="translate(240.178739, 337.909263)"><g><path d="M 22.082031 0.324219 C 27.566406 0.324219 32.046875 -1.398438 35.167969 -4.839844 C 38.394531 -8.351562 40.003906 -13.40625 40.003906 -19.96875 L 40.003906 -41.082031 C 40.003906 -42.835938 39.289062 -44.488281 38.105469 -45.667969 C 36.921875 -46.816406 35.203125 -47.535156 33.480469 -47.535156 C 31.652344 -47.535156 29.96875 -46.816406 28.785156 -45.667969 C 27.601562 -44.488281 26.851562 -42.835938 26.851562 -41.082031 L 26.851562 -19.859375 C 26.851562 -14.804688 25.703125 -12.761719 22.367188 -12.761719 C 20.46875 -12.761719 19.320312 -13.121094 18.570312 -14.160156 C 17.78125 -15.269531 17.386719 -17.3125 17.386719 -20.253906 L 17.386719 -41.082031 C 17.386719 -42.835938 16.667969 -44.488281 15.484375 -45.667969 C 14.304688 -46.851562 12.652344 -47.535156 10.824219 -47.535156 C 8.996094 -47.535156 7.347656 -46.816406 6.203125 -45.667969 C 5.019531 -44.488281 4.265625 -42.835938 4.265625 -41.082031 L 4.265625 -19.464844 C 4.265625 -13.480469 5.914062 -8.496094 8.960938 -5.054688 C 12.007812 -1.578125 16.488281 0.324219 22.082031 0.324219 Z M 22.082031 0.324219 "/></g></g></g><g fill="#000000" fill-opacity="1"><g transform="translate(284.484642, 337.909263)"><g><path d="M 28.570312 0 C 32.550781 0 36.277344 -1.613281 39.003906 -4.335938 C 41.726562 -7.0625 43.339844 -10.789062 43.339844 -14.769531 C 43.339844 -18.460938 41.941406 -21.902344 39.503906 -24.664062 C 41.261719 -27.027344 42.121094 -29.71875 42.121094 -32.765625 C 42.121094 -36.671875 40.542969 -40.257812 37.925781 -42.875 C 35.308594 -45.453125 31.6875 -46.996094 27.78125 -46.996094 L 12.007812 -46.996094 C 10.289062 -46.996094 8.675781 -46.351562 7.527344 -45.203125 C 6.34375 -44.019531 5.664062 -42.445312 5.664062 -40.722656 L 5.664062 -6.273438 C 5.664062 -4.550781 6.378906 -2.976562 7.527344 -1.828125 C 8.675781 -0.679688 10.289062 0 12.007812 0 Z M 18.390625 -29.644531 L 18.390625 -34.234375 L 26.992188 -34.234375 C 27.53125 -34.234375 27.996094 -34.089844 28.460938 -33.804688 C 29.035156 -33.445312 29.324219 -32.980469 29.324219 -32.371094 C 29.324219 -31.796875 29.074219 -31.222656 28.605469 -30.613281 C 28.175781 -30.074219 27.601562 -29.683594 27.136719 -29.644531 Z M 18.390625 -12.726562 L 18.390625 -18.175781 L 28.070312 -18.175781 C 28.535156 -18.175781 29.179688 -17.886719 29.71875 -17.457031 C 30.328125 -16.921875 30.613281 -16.347656 30.613281 -15.703125 C 30.613281 -15.054688 30.328125 -14.375 29.71875 -13.695312 C 29.25 -13.121094 28.5 -12.726562 28.03125 -12.726562 Z M 18.390625 -12.726562 "/></g></g></g></svg>